<?xml version="1.0" encoding="utf-8"?>
<!-- Generator: Adobe Illustrator 16.0.0, SVG Export Plug-In . SVG Version: 6.00 Build 0)  -->
<!DOCTYPE svg PUBLIC "-//W3C//DTD SVG 1.1//EN" "http://www.w3.org/Graphics/SVG/1.1/DTD/svg11.dtd">
<svg version="1.1" id="Layer_1" xmlns="http://www.w3.org/2000/svg" xmlns:xlink="http://www.w3.org/1999/xlink" x="0px" y="0px"
	 width="612px" height="792px" viewBox="0 0 612 792" enable-background="new 0 0 612 792" xml:space="preserve">
<path fill="#727070" d="M203.919,122.062l-8.277,16.438H85.286c-20.347,0-36.786,16.438-36.786,36.786s16.438,36.786,36.786,36.786
	h441.429c20.347,0,36.785-16.438,36.785-36.786S547.062,138.5,526.715,138.5H416.356l-8.276-16.438
	c-6.207-12.53-18.968-20.347-32.877-20.347H236.797C222.887,101.714,210.127,109.531,203.919,122.062z M526.715,248.857H85.286
	l24.371,389.699c1.839,29.084,25.98,51.729,55.063,51.729H447.28c29.084,0,53.225-22.646,55.063-51.729L526.715,248.857z"/>
</svg>
